#!OML:ASF F:\VICON\USERDATA\INSTALL\rory3\rory3.ASF
:FULLY-SPECIFIED
:DEGREES
958
root 10.3059 18.1523 0.99367 -358.533 -47.93 -1.16542
lowerback 12.4229 1.24991 0.0106451
upperback 0.93267 1.74325 1.75379
thorax -6.04437 0.864913 1.53648
lowerneck -17.8959 -6.28325 -10.3855
upperneck 27.1656 -8.86316 9.24115
head 12.963 -3.91065 3.82866
rclavicle 1.07095e-013 7.55382e-015
rhumerus -31.3761 -7.5071 -84.0954
rradius 29.4964
rwrist 3.29813
rhand -20.4471 7.36383
rfingers 7.12502
rthumb 5.90814 -22.5338
lclavicle 1.07095e-013 7.55382e-015
lhumerus -36.9179 -3.21265 86.391
lradius 36.6492
lwrist -7.58092
lhand -14.9977 23.7994
lfingers 7.12502
lthumb 11.167 53.4822
rfemur -8.66107 -4.55732 28.6172
rtibia 21.8115
rfoot -10.9353 -2.51058
rtoes 19.5931
lfemur -13.3972 -1.48532 -16.2565
ltibia 58.1738
lfoot 1.50059 -6.52914
ltoes -13.5593
959
root 10.2297 18.1468 1.0709 -358.532 -48.135 -1.34256
lowerback 12.5624 1.31123 0.316512
upperback 0.97914 1.86275 1.69227
thorax -6.06442 0.913723 1.27586
lowerneck -17.9437 -6.30027 -10.3769
upperneck 27.1981 -8.89453 9.2586
head 12.9908 -3.91985 3.82845
rclavicle 3.62285e-014 3.97569e-015
rhumerus -31.0818 -7.29128 -84.3163
rradius 29.8258
rwrist 3.05822
rhand -20.5107 7.03699
rfingers 7.12502
rthumb 5.84678 -22.8623
lclavicle 3.62285e-014 3.97569e-015
lhumerus -37.0492 -2.93975 86.2623
lradius 36.5991
lwrist -7.92404
lhand -14.742 23.6372
lfingers 7.12502
lthumb 11.4135 53.3066
rfemur -8.13805 -4.55987 28.6949
rtibia 21.8752
rfoot -11.3421 -2.4118
rtoes 19.3139
lfemur -14.4617 -1.74162 -16.0725
ltibia 58.2516
lfoot 0.489306 -5.99583
ltoes -12.3589
960
root 10.1559 18.1255 1.14905 -358.69 -48.3642 -1.23367
lowerback 12.5423 1.40566 0.502865
upperback 1.07973 2.00099 1.53579
thorax -5.93745 0.974223 0.983192
lowerneck -17.9684 -6.34307 -10.3472
upperneck 27.1758 -8.97904 9.31489
head 12.9992 -3.94578 3.82936
rclavicle -3.56818e-014 1.43125e-014
rhumerus -30.5762 -7.4563 -84.5079
rradius 29.9567
rwrist 3.05937
rhand -20.6232 6.83179
rfingers 7.12502
rthumb 5.73818 -23.0705
lclavicle -3.56818e-014 1.43125e-014
lhumerus -37.0813 -3.03976 86.2127
lradius 36.6071
lwrist -7.77745
lhand -14.8761 23.8047
lfingers 7.12502
lthumb 11.2842 53.4811
rfemur -7.7707 -4.62558 28.5565
rtibia 22.1066
rfoot -11.8508 -2.22616
rtoes 19.0701
lfemur -15.4149 -1.90794 -16.1855
ltibia 58.1407
lfoot -0.996211 -5.36056
ltoes -14.5836
961
root 10.0796 18.1006 1.22333 -358.617 -48.705 -1.25838
lowerback 12.4975 1.53063 0.617155
upperback 1.03626 2.18014 1.4813
thorax -5.95477 1.05876 0.830712
lowerneck -17.7889 -6.37784 -10.4584
upperneck 27.1908 -9.03014 9.35758
head 12.983 -3.98076 3.85945
rclavicle 1.71303e-013 3.18055e-015
rhumerus -30.253 -7.43966 -84.6278
rradius 30.0748
rwrist 2.89149
rhand -20.6016 6.89941
rfingers 7.12502
rthumb 5.759 -23.0023
lclavicle 1.71303e-013 3.18055e-015
lhumerus -37.3221 -3.03519 86.228
lradius 36.6492
lwrist -7.41082
lhand -15.0601 23.8805
lfingers 7.12502
lthumb 11.1068 53.5666
rfemur -7.66131 -4.62253 28.5446
rtibia 22.5449
rfoot -12.4384 -2.02598
rtoes 19.3245
lfemur -16.4851 -1.9105 -16.1636
ltibia 57.8826
lfoot -2.10902 -4.68199
ltoes -15.7325
962
root 10.0011 18.0752 1.297 -358.465 -49.0877 -1.45745
lowerback 12.4937 1.67057 0.782865
upperback 1.03637 2.388 1.47565
thorax -5.94809 1.15616 0.69536
lowerneck -17.6926 -6.42168 -10.5397
upperneck 27.1375 -9.08278 9.38927
head 12.9543 -4.01133 3.87661
rclavicle 5.98839e-014 -1.11319e-014
rhumerus -29.9537 -7.04125 -84.8619
rradius 30.3992
rwrist 2.5645
rhand -20.5427 6.58232
rfingers 7.12502
rthumb 5.81591 -23.3179
lclavicle 5.98839e-014 -1.11319e-014
lhumerus -37.4585 -3.04293 86.2188
lradius 36.6152
lwrist -7.2278
lhand -15.2712 24.3551
lfingers 7.12502
lthumb 10.9032 54.052
rfemur -7.45899 -4.48551 28.6798
rtibia 22.9317
rfoot -12.9351 -2.05545
rtoes 18.0135
lfemur -17.518 -1.75302 -15.9463
ltibia 57.4746
lfoot -2.90655 -4.26381
ltoes -15.0187
963
root 9.92182 18.054 1.37164 -358.445 -49.4272 -1.61772
lowerback 12.6136 1.78994 0.926515
upperback 1.06486 2.56572 1.45957
thorax -5.97935 1.23859 0.563532
lowerneck -17.6517 -6.44907 -10.5819
upperneck 27.0823 -9.12492 9.44362
head 12.9342 -4.02866 3.897
rclavicle -2.9768e-014 -1.82882e-014
rhumerus -29.8264 -6.0344 -85.2396
rradius 31.0594
rwrist 1.69796
rhand -20.495 6.09587
rfingers 7.12502
rthumb 5.86194 -23.803
lclavicle -2.9768e-014 -1.82882e-014
lhumerus -37.5932 -2.89526 86.1464
lradius 36.6137
lwrist -7.32055
lhand -15.1925 24.4682
lfingers 7.12502
lthumb 10.9791 54.1611
rfemur -7.05869 -4.15203 28.7748
rtibia 23.1613
rfoot -12.8864 -2.23808
rtoes 12.8953
lfemur -18.3847 -1.84188 -15.7884
ltibia 56.8918
lfoot -3.55249 -3.67849
ltoes -13.6607
964
root 9.83912 18.0465 1.44299 -358.268 -49.7295 -1.95497
lowerback 12.7524 1.86219 1.13892
upperback 1.04582 2.69631 1.50002
thorax -6.06989 1.29638 0.458881
lowerneck -17.5753 -6.43432 -10.6755
upperneck 27.0748 -9.08942 9.46871
head 12.9174 -4.02234 3.93049
rclavicle -9.16397e-014 9.54166e-015
rhumerus -29.6647 -5.39458 -85.4993
rradius 31.4884
rwrist 1.20155
rhand -20.1789 6.52624
rfingers 7.12502
rthumb 6.1671 -23.364
lclavicle -9.16397e-014 9.54166e-015
lhumerus -37.8753 -2.68519 86.0829
lradius 36.7086
lwrist -7.30973
lhand -14.9303 24.1535
lfingers 7.12502
lthumb 11.232 53.8328
rfemur -6.6223 -3.71136 29.0049
rtibia 23.3322
rfoot -12.8232 -2.44784
rtoes 8.88175
lfemur -19.1996 -2.11254 -15.5191
ltibia 56.1325
lfoot -4.07995 -2.83327
ltoes -13.0629
965
root 9.75729 18.0358 1.51394 -358.089 -49.9547 -2.23213
lowerback 12.8029 1.9206 1.34693
upperback 1.0463 2.80566 1.53175
thorax -6.0895 1.34429 0.354293
lowerneck -17.5392 -6.4354 -10.8229
upperneck 27.0345 -9.06493 9.53709
head 12.9027 -4.01929 3.98676
rclavicle 5.12367e-014 -2.74323e-014
rhumerus -29.3255 -5.26544 -85.6117
rradius 31.6317
rwrist 1.18972
rhand -19.5507 7.69279
rfingers 7.12502
rthumb 6.77356 -22.1789
lclavicle 5.12367e-014 -2.74323e-014
lhumerus -38.1585 -2.69483 86.1116
lradius 36.8441
lwrist -7.02576
lhand -14.9073 24.396
lfingers 7.12502
lthumb 11.2541 54.0741
rfemur -6.20962 -3.34185 29.2006
rtibia 23.4475
rfoot -13.4641 -2.64757
rtoes 12.5705
lfemur -20.0152 -2.33509 -15.3079
ltibia 55.2116
lfoot -4.7048 -1.93934
ltoes -14.9912
966
root 9.67793 18.0115 1.59081 -357.98 -50.1485 -2.44673
lowerback 12.8471 1.95649 1.58611
upperback 1.07437 2.88555 1.51446
thorax -6.07159 1.37664 0.186629
lowerneck -17.545 -6.4327 -10.8888
upperneck 26.9933 -9.04302 9.56577
head 12.8897 -4.0124 4.01214
rclavicle 6.60959e-014 5.56597e-015
rhumerus -28.9834 -5.02559 -85.7939
rradius 31.8081
rwrist 1.15718
rhand -19.4429 8.27924
rfingers 7.12502
rthumb 6.87763 -21.589
lclavicle 6.60959e-014 5.56597e-015
lhumerus -38.3913 -2.56652 86.0577
lradius 36.9134
lwrist -6.93254
lhand -15.0238 24.5042
lfingers 7.12502
lthumb 11.1418 54.1884
rfemur -5.73198 -3.10884 29.3249
rtibia 23.4792
rfoot -14.1714 -2.77078
rtoes 15.4319
lfemur -20.7692 -2.48469 -15.1511
ltibia 54.16
lfoot -5.29555 -1.22497
ltoes -16.2921
